<?xml version="1.0" encoding="UTF-8" standalone="no"?>
<svg
   xmlns:dc="http://purl.org/dc/elements/1.1/"
   xmlns:cc="http://creativecommons.org/ns#"
   xmlns:rdf="http://www.w3.org/1999/02/22-rdf-syntax-ns#"
   xmlns:svg="http://www.w3.org/2000/svg"
   xmlns="http://www.w3.org/2000/svg"
   xmlns:xlink="http://www.w3.org/1999/xlink"
   xmlns:sodipodi="http://sodipodi.sourceforge.net/DTD/sodipodi-0.dtd"
   xmlns:inkscape="http://www.inkscape.org/namespaces/inkscape"
   inkscape:export-ydpi="96"
   inkscape:export-xdpi="96"
   inkscape:export-filename="/run/media/henrique/pigdev/Documents/GDQuest/godot-mini-tuts-demos/Audio/Pickup Sound Effects/icon.png"
   sodipodi:docname="icon.svg"
   inkscape:version="1.0 (4035a4fb49, 2020-05-01)"
   id="svg8"
   version="1.1"
   viewBox="0 0 16.933333 16.933334"
   height="64"
   width="64">
  <defs
     id="defs2">
    <linearGradient
       inkscape:collect="always"
       id="linearGradient3106">
      <stop
         id="stop3104"
         offset="0"
         style="stop-color:#4a41aa;stop-opacity:1" />
      <stop
         style="stop-color:#2b2e89;stop-opacity:1"
         offset="0.50566328"
         id="stop3123" />
      <stop
         id="stop3102"
         offset="1"
         style="stop-color:#151c6c;stop-opacity:1" />
    </linearGradient>
    <radialGradient
       gradientUnits="userSpaceOnUse"
       gradientTransform="matrix(0.03431613,0,0,0.04847655,-0.24963171,12.245195)"
       r="254"
       fy="154.12498"
       fx="254"
       cy="154.12498"
       cx="254"
       id="radialGradient5671"
       xlink:href="#linearGradient3106"
       inkscape:collect="always" />
    <linearGradient
       y2="15"
       y1="1"
       x2="8"
       x1="8"
       gradientUnits="userSpaceOnUse"
       id="a">
      <stop
         id="stop2"
         stop-color="#ff7a7a"
         offset="0" />
      <stop
         id="stop4"
         stop-color="#e1dc7a"
         offset=".5" />
      <stop
         id="stop6"
         stop-color="#66ff9e"
         offset="1" />
    </linearGradient>
    <linearGradient
       id="a-5"
       gradientUnits="userSpaceOnUse"
       x1="8"
       x2="8"
       y1="1"
       y2="15">
      <stop
         offset="0"
         stop-color="#ff7a7a"
         id="stop2-6" />
      <stop
         offset=".5"
         stop-color="#e1dc7a"
         id="stop4-2" />
      <stop
         offset="1"
         stop-color="#66ff9e"
         id="stop6-9" />
    </linearGradient>
  </defs>
  <sodipodi:namedview
     inkscape:snap-global="false"
     inkscape:snap-page="true"
     inkscape:document-rotation="0"
     inkscape:window-maximized="1"
     inkscape:window-y="30"
     inkscape:window-x="0"
     inkscape:window-height="1011"
     inkscape:window-width="1920"
     units="px"
     showgrid="false"
     inkscape:current-layer="layer1"
     inkscape:document-units="mm"
     inkscape:cy="30.617523"
     inkscape:cx="33.669448"
     inkscape:zoom="9.1452477"
     inkscape:pageshadow="2"
     inkscape:pageopacity="0.0"
     borderopacity="1.0"
     bordercolor="#666666"
     pagecolor="#ffffff"
     id="base">
    <inkscape:grid
       spacingy="5.2916667"
       spacingx="5.2916667"
       originy="21.166667"
       id="grid27"
       type="xygrid" />
  </sodipodi:namedview>
  <metadata
     id="metadata5">
    <rdf:RDF>
      <cc:Work
         rdf:about="">
        <dc:format>image/svg+xml</dc:format>
        <dc:type
           rdf:resource="http://purl.org/dc/dcmitype/StillImage" />
        <dc:title />
      </cc:Work>
    </rdf:RDF>
  </metadata>
  <g
     transform="translate(0,-11.249975)"
     id="layer1"
     inkscape:groupmode="layer"
     inkscape:label="Layer 1">
    <path
       style="vector-effect:none;fill:url(#radialGradient5671);fill-opacity:1;fill-rule:nonzero;stroke:none;stroke-width:0.104282;stroke-linecap:round;stroke-linejoin:round;stroke-miterlimit:4;stroke-dasharray:none;stroke-dashoffset:0;stroke-opacity:1;marker:none;paint-order:normal"
       d="M 0,28.183308 H 16.933334 V 11.249975 H 0 Z"
       id="path941"
       inkscape:connector-curvature="0" />
    <g
       transform="matrix(0.740784,0,0,0.740784,2.5403558,-753.95868)"
       id="g13">
      <path
         d="m 10.023,1044.4 c -0.56139,-0.013 -1.0235,0.4264 -1.0234,0.9724 v 5.0542 c 6.911e-4,0.7482 0.83361,1.2154 1.5,0.8414 l 4,-2.5262 c 0.66694,-0.3743 0.66694,-1.3104 0,-1.6847 l -4,-2.5261 c -0.14505,-0.082 -0.30893,-0.1269 -0.47656,-0.131 z"
         fill="#a5b7f3"
         id="path9" />
      <path
         style="fill:url(#a-5)"
         d="m 11.971,1.002 a 1.0001,1.0001 0 0 0 -0.24609,0.037109 l -7,2 A 1.0001,1.0001 0 0 0 4.0003,4.000049 v 5.5508 a 2.5,2.5 0 0 0 -0.5,-0.050781 2.5,2.5 0 0 0 -2.5,2.5 2.5,2.5 0 0 0 2.5,2.5 2.5,2.5 0 0 0 2.4961,-2.4121 1.0001,1.0001 0 0 0 0.00391,-0.08789 v -7.2441 l 5,-1.4277 v 3.1719 l 2,-1 v -3.5 a 1.0001,1.0001 0 0 0 -1.0293,-0.99805 z"
         fill="url(#a)"
         transform="translate(0,1036.4)"
         id="path11" />
    </g>
  </g>
</svg>
